<?xml version="1.0" encoding="utf-8"?>
<!-- Generator: Adobe Illustrator 21.1.0, SVG Export Plug-In . SVG Version: 6.00 Build 0)  -->
<svg version="1.1" xmlns="http://www.w3.org/2000/svg" xmlns:xlink="http://www.w3.org/1999/xlink" x="0px" y="0px"
	 viewBox="0 0 40 40" style="enable-background:new 0 0 40 40;" xml:space="preserve">
<style type="text/css">
	.st0{fill:#BD79B1;}
</style>
<path class="st0" d="M26.8,20L38.6,8.3c1.9-1.9,1.9-5,0-6.9c-1.9-1.9-5-1.9-6.9,0L20,13L8.3,1.4c-1.9-1.9-5-1.9-6.9,0
	c-1.9,1.9-1.9,5,0,6.9L13.2,20L1.4,31.7c-1.9,1.9-1.9,5,0,6.9c1,1,2.2,1.4,3.5,1.4c1.2,0,2.5-0.5,3.4-1.4L20,27l11.7,11.6
	c1,0.9,2.2,1.4,3.4,1.4c1.3,0,2.5-0.5,3.5-1.4c1.9-1.9,1.9-5,0-6.9L26.8,20z"/>
</svg>
